<svg xmlns="http://www.w3.org/2000/svg" xmlns:xlink="http://www.w3.org/1999/xlink" xmlns:lucid="lucid" width="1253.33" height="1040"><g transform="translate(0 0)" lucid:page-tab-id="0_0"><path d="M60 665c0-2.76 2.24-5 5-5h310c2.76 0 5 2.24 5 5v50c0 2.76-2.24 5-5 5H65c-2.76 0-5-2.24-5-5z" fill="none"/><use xlink:href="#a" transform="matrix(1,0,0,1,60,660) translate(0 14.4)"/><use xlink:href="#b" transform="matrix(1,0,0,1,60,660) translate(60.900000000000006 14.4)"/><use xlink:href="#c" transform="matrix(1,0,0,1,60,660) translate(166.7 14.4)"/><use xlink:href="#d" transform="matrix(1,0,0,1,60,660) translate(221.64999999999998 14.4)"/><use xlink:href="#e" transform="matrix(1,0,0,1,60,660) translate(285.54999999999995 14.4)"/><use xlink:href="#f" transform="matrix(1,0,0,1,60,660) translate(0 36)"/><use xlink:href="#g" transform="matrix(1,0,0,1,60,660) translate(49.9 36)"/><use xlink:href="#h" transform="matrix(1,0,0,1,60,660) translate(83.9 36)"/><use xlink:href="#i" transform="matrix(1,0,0,1,60,660) translate(108.9 36)"/><use xlink:href="#j" transform="matrix(1,0,0,1,60,660) translate(123.9 36)"/><use xlink:href="#k" transform="matrix(1,0,0,1,60,660) translate(202.8 36)"/><use xlink:href="#i" transform="matrix(1,0,0,1,60,660) translate(258.75 36)"/><use xlink:href="#l" transform="matrix(1,0,0,1,60,660) translate(273.75 36)"/><use xlink:href="#m" transform="matrix(1,0,0,1,60,660) translate(301.65 36)"/><use xlink:href="#n" transform="matrix(1,0,0,1,60,660) translate(0 57.6)"/><use xlink:href="#o" transform="matrix(1,0,0,1,60,660) translate(62.900000000000006 57.6)"/><path d="M446.46 283.54c1.96-1.96 5.12-1.96 7.08 0l42.92 42.92c1.96 1.96 1.96 5.12 0 7.08l-42.92 42.92c-1.96 1.96-5.12 1.96-7.08 0l-42.92-42.92c-1.96-1.96-1.96-5.12 0-7.08z" stroke="#000" stroke-width="2" fill="#fff"/><use xlink:href="#p" transform="matrix(1,0,0,1,400,280) translate(30.5 53.6)"/><path d="M560 305c0-2.76 2.24-5 5-5h70c2.76 0 5 2.24 5 5v50c0 2.76-2.24 5-5 5h-70c-2.76 0-5-2.24-5-5z" stroke="#000" stroke-width="2" fill="#fff"/><use xlink:href="#q" transform="matrix(1,0,0,1,580,300) translate(2.5 33.6)"/><path d="M260 305c0-2.76 2.24-5 5-5h70c2.76 0 5 2.24 5 5v50c0 2.76-2.24 5-5 5h-70c-2.76 0-5-2.24-5-5z" stroke="#000" stroke-width="2" fill="#fff"/><use xlink:href="#r" transform="matrix(1,0,0,1,280,300) translate(1.0499999999999972 33.6)"/><path d="M342 330l52.27.7 5.88-.6" stroke="#000" stroke-width="2" fill="none"/><path d="M342.04 329l-.03 2h-1v-2zM401.08 329.4l.18 1.6-1.03.1-.2-2 1.18-.1z"/><path d="M499.85 329.92l13.46-1.1 17.86.2 26.84.94" stroke="#000" stroke-width="2" fill="none"/><path d="M499.95 330.9l-1.16.1.12-.4-.18-1.6 1.05-.08zM559 329v2l-1.06-.04.07-2z"/><path d="M180 250c0 16.57-22.4 30-50 30s-50-13.43-50-30 22.4-30 50-30 50 13.43 50 30z" stroke="#000" stroke-width="2" fill="#fff"/><use xlink:href="#s" transform="matrix(1,0,0,1,80,220) translate(11.549999999999997 33.6)"/><path d="M180 330c0 16.57-22.4 30-50 30s-50-13.43-50-30 22.4-30 50-30 50 13.43 50 30z" stroke="#000" stroke-width="2" fill="#fff"/><use xlink:href="#t" transform="matrix(1,0,0,1,80,300) translate(28.574999999999996 33.6)"/><path d="M180 410c0 16.57-22.4 30-50 30s-50-13.43-50-30 22.4-30 50-30 50 13.43 50 30z" stroke="#000" stroke-width="2" fill="#fff"/><use xlink:href="#u" transform="matrix(1,0,0,1,80,380) translate(27.525 33.6)"/><path d="M258.67 302.74l-76.93-50.3" stroke="#000" stroke-width="2" fill="none"/><path d="M259.83 302.3l-.64 1.97-1.1-.7 1.1-1.68zM182.3 251.63l-1.08 1.67-.48-.3.16-1.07.06-1.18z"/><path d="M258 330h-76" stroke="#000" stroke-width="2" fill="none"/><path d="M259 331h-1.03v-2H259zM182.03 331h-1.08l.05-1-.03-1h1.06z"/><path d="M259.95 359.54l-78.1 49.92" stroke="#000" stroke-width="2" fill="none"/><path d="M261.38 359.82l-.92.58-1.08-1.68.82-.52zM182.4 410.3l-1.46.93.06-1.22-.04-1.16.37-.23z"/><path d="M840 110c0 16.57-22.4 30-50 30s-50-13.43-50-30 22.4-30 50-30 50 13.43 50 30z" stroke="#000" stroke-width="2" fill="#fff"/><use xlink:href="#v" transform="matrix(1,0,0,1,740,80) translate(36.05 33.6)"/><path d="M676 530c0 16.57-22.4 30-50 30s-50-13.43-50-30 22.4-30 50-30 50 13.43 50 30z" stroke="#000" stroke-width="2" fill="#fff"/><use xlink:href="#w" transform="matrix(1,0,0,1,576,500) translate(6.574999999999996 33.6)"/><path d="M600.6 298.2l137.8-187.4" stroke="#000" stroke-width="2" fill="none"/><path d="M601.4 298.77l-.16.23h-2.48l1.04-1.42zM739 110l.05 1.3-1.46-1.07 1.5-2.04z"/><path d="M600.2 361.98l25.6 136.04" stroke="#000" stroke-width="2" fill="none"/><path d="M601.17 361.82l-1.96.37-.22-1.2h2.04zM627.03 499.05L626 499l-1 .03-.17-.85 1.96-.37z"/><path d="M1196 230c0 16.57-22.4 30-50 30s-50-13.43-50-30 22.4-30 50-30 50 13.43 50 30z" stroke="#000" stroke-width="2" fill="#fff"/><use xlink:href="#x" transform="matrix(1,0,0,1,1096,200) translate(8.549999999999997 33.6)"/><path d="M840 190c0 16.57-22.4 30-50 30s-50-13.43-50-30 22.4-30 50-30 50 13.43 50 30z" stroke="#000" stroke-width="2" fill="#fff"/><use xlink:href="#y" transform="matrix(1,0,0,1,740,160) translate(34.05 33.6)"/><path d="M840 510c0 16.57-26.86 30-60 30s-60-13.43-60-30 26.86-30 60-30 60 13.43 60 30z" stroke="#000" stroke-width="2" fill="#fff"/><use xlink:href="#z" transform="matrix(1,0,0,1,720,480) translate(8.600000000000001 33.6)"/><path d="M640 170c0 16.57-31.34 30-70 30s-70-13.43-70-30 31.34-30 70-30 70 13.43 70 30z" stroke="#000" stroke-width="2" fill="#fff"/><use xlink:href="#A" transform="matrix(1,0,0,1,500,140) translate(18.124999999999993 33.6)"/><path d="M570 202v96" stroke="#000" stroke-width="2" fill="none"/><path d="M570 201l1-.03v1.06h-2v-1.06zM571 299h-2v-1.03h2z"/><path d="M738.34 190.75l-97 111.52" stroke="#000" stroke-width="2" fill="none"/><path d="M739 190l.05 1.38v.02l-1.48-1.28 1.5-1.74zM642.12 302.9l-1.22 1.4-.2-1.28-.6-.82.5-.6z"/><path d="M1094.17 230.55l-102.67 67.9" stroke="#000" stroke-width="2" fill="none"/><path d="M1095 230l.04 1.17-.34.23-1.1-1.67 1.46-.97zM992.07 299.27l-.03.02-.88-.3h-2.3l2.1-1.4z"/><path d="M842 509.9l113-10.95" stroke="#000" stroke-width="2" fill="none"/><path d="M842.12 510.9l-1.16.1.04-1-.03-1 .95-.1zM959.08 499.56l-4 .4-.12-1.18.43.14 2.58-.3.95-.6z"/><path d="M786.46 283.54c1.96-1.96 5.12-1.96 7.08 0l42.92 42.92c1.96 1.96 1.96 5.12 0 7.08l-42.92 42.92c-1.96 1.96-5.12 1.96-7.08 0l-42.92-42.92c-1.96-1.96-1.96-5.12 0-7.08z" stroke="#000" stroke-width="2" fill="#fff"/><use xlink:href="#B" transform="matrix(1,0,0,1,740,280) translate(30.5 53.6)"/><path d="M642 330h98.15" stroke="#000" stroke-width="2" fill="none"/><path d="M642.03 331H641v-2h1.03zM741.08 329.4l.2 1.6h-1.16v-2h1.1z"/><path d="M642 330h98.15" stroke="#000" stroke-width="2" fill="none"/><path d="M642.03 331H641v-2h1.03zM741.08 329.4l.2 1.6h-1.16v-2h1.1z"/><path d="M916 305c0-2.76 2.24-5 5-5h70c2.76 0 5 2.24 5 5v50c0 2.76-2.24 5-5 5h-70c-2.76 0-5-2.24-5-5z" stroke="#000" stroke-width="2" fill="#fff"/><use xlink:href="#C" transform="matrix(1,0,0,1,936,300) translate(-7.950000000000003 33.6)"/><path d="M642 330h98.15" stroke="#000" stroke-width="2" fill="none"/><path d="M642.03 331H641v-2h1.03zM741.08 329.4l.2 1.6h-1.16v-2h1.1z"/><path d="M642 330h98.15" stroke="#000" stroke-width="2" fill="none"/><path d="M642.03 331H641v-2h1.03zM741.08 329.4l.2 1.6h-1.16v-2h1.1z"/><path d="M839.85 330H914" stroke="#000" stroke-width="2" fill="none"/><path d="M839.88 331h-1.1l.14-.4-.2-1.6h1.16zM915 331h-1.03v-2H915z"/><path d="M718.54 509.1L640.32 359.5" stroke="#000" stroke-width="2" fill="none"/><path d="M719 510l.04 1.16.15 1.35v.04l-1.56-3 1.4-.72zM641.22 359.04l-1.77.92-.4-.77.84-.63.4-1.28z"/><path d="M952.46 403.54c1.96-1.96 5.12-1.96 7.08 0l42.92 42.92c1.96 1.96 1.96 5.12 0 7.08l-42.92 42.92c-1.96 1.96-5.12 1.96-7.08 0l-42.92-42.92c-1.96-1.96-1.96-5.12 0-7.08z" stroke="#000" stroke-width="2" fill="#fff"/><g><use xlink:href="#D" transform="matrix(1,0,0,1,906,400) translate(25.025 53.6)"/></g><path d="M956 362v38.15" stroke="#000" stroke-width="2" fill="none"/><path d="M957 362.03h-2V361h2zM957 401.2l-.4-.12-1.6.2v-1.16h2z"/><path d="M956 362v38.15" stroke="#000" stroke-width="2" fill="none"/><path d="M957 362.03h-2V361h2zM957 401.2l-.4-.12-1.6.2v-1.16h2z"/><path d="M841.57 190.82l75.8 108.45" stroke="#000" stroke-width="2" fill="none"/><path d="M842.4 190.27l-1.46 1.03.06-1.3-.05-1.38-.06-.53zM918.76 299.5l-1.62 1.18-.6-.86 1.64-1.15z"/><path d="M60 765c0-2.76 2.24-5 5-5h310c2.76 0 5 2.24 5 5v50c0 2.76-2.24 5-5 5H65c-2.76 0-5-2.24-5-5z" fill="none"/><g><use xlink:href="#E" transform="matrix(1,0,0,1,60,760) translate(0 14.4)"/><use xlink:href="#F" transform="matrix(1,0,0,1,60,760) translate(45.95 14.4)"/><use xlink:href="#G" transform="matrix(1,0,0,1,60,760) translate(78.9 14.4)"/><use xlink:href="#H" transform="matrix(1,0,0,1,60,760) translate(148.8 14.4)"/><use xlink:href="#i" transform="matrix(1,0,0,1,60,760) translate(166.75 14.4)"/><use xlink:href="#I" transform="matrix(1,0,0,1,60,760) translate(181.75 14.4)"/><use xlink:href="#J" transform="matrix(1,0,0,1,60,760) translate(230.65 14.4)"/><use xlink:href="#K" transform="matrix(1,0,0,1,60,760) translate(270.65 14.4)"/><use xlink:href="#L" transform="matrix(1,0,0,1,60,760) translate(0 36)"/><use xlink:href="#M" transform="matrix(1,0,0,1,60,760) translate(15 36)"/><use xlink:href="#i" transform="matrix(1,0,0,1,60,760) translate(39.95 36)"/><use xlink:href="#N" transform="matrix(1,0,0,1,60,760) translate(54.95 36)"/><use xlink:href="#O" transform="matrix(1,0,0,1,60,760) translate(86.85 36)"/><use xlink:href="#P" transform="matrix(1,0,0,1,60,760) translate(106.85 36)"/><use xlink:href="#Q" transform="matrix(1,0,0,1,60,760) translate(136.85 36)"/><use xlink:href="#R" transform="matrix(1,0,0,1,60,760) translate(181.85 36)"/><use xlink:href="#S" transform="matrix(1,0,0,1,60,760) translate(216.85 36)"/><use xlink:href="#T" transform="matrix(1,0,0,1,60,760) translate(288.8 36)"/><use xlink:href="#U" transform="matrix(1,0,0,1,60,760) translate(0 57.6)"/></g><defs><path d="M24 0v-248h195v40H76v63h132v40H76v65h150V0H24" id="V"/><path d="M135-194c87-1 58 113 63 194h-50c-7-57 23-157-34-157-59 0-34 97-39 157H25l-1-190h47c2 12-1 28 3 38 12-26 28-41 61-42" id="W"/><path d="M115-3C79 11 28 4 28-45v-112H4v-33h27l15-45h31v45h36v33H77v99c-1 23 16 31 38 25v30" id="X"/><path d="M135-150c-39-12-60 13-60 57V0H25l-1-190h47c2 13-1 29 3 40 6-28 27-53 61-41v41" id="Y"/><path d="M25-224v-37h50v37H25zM25 0v-190h50V0H25" id="Z"/><path d="M185-48c-13 30-37 53-82 52C43 2 14-33 14-96s30-98 90-98c62 0 83 45 84 108H66c0 31 8 55 39 56 18 0 30-7 34-22zm-45-69c5-46-57-63-70-21-2 6-4 13-4 21h74" id="aa"/><path d="M33-154v-36h34v36H33zM33 0v-36h34V0H33" id="ab"/><g id="a"><use transform="matrix(0.05,0,0,0.05,0,0)" xlink:href="#V"/><use transform="matrix(0.05,0,0,0.05,12,0)" xlink:href="#W"/><use transform="matrix(0.05,0,0,0.05,22.950000000000003,0)" xlink:href="#X"/><use transform="matrix(0.05,0,0,0.05,28.900000000000002,0)" xlink:href="#Y"/><use transform="matrix(0.05,0,0,0.05,35.900000000000006,0)" xlink:href="#Z"/><use transform="matrix(0.05,0,0,0.05,40.900000000000006,0)" xlink:href="#aa"/><use transform="matrix(0.05,0,0,0.05,50.900000000000006,0)" xlink:href="#ab"/></g><path d="M212-179c-10-28-35-45-73-45-59 0-87 40-87 99 0 60 29 101 89 101 43 0 62-24 78-52l27 14C228-24 195 4 139 4 59 4 22-46 18-125c-6-104 99-153 187-111 19 9 31 26 39 46" id="ac"/><path d="M100-194c62-1 85 37 85 99 1 63-27 99-86 99S16-35 15-95c0-66 28-99 85-99zM99-20c44 1 53-31 53-75 0-43-8-75-51-75s-53 32-53 75 10 74 51 75" id="ad"/><path d="M24 0v-261h32V0H24" id="ae"/><path d="M141-36C126-15 110 5 73 4 37 3 15-17 15-53c-1-64 63-63 125-63 3-35-9-54-41-54-24 1-41 7-42 31l-33-3c5-37 33-52 76-52 45 0 72 20 72 64v82c-1 20 7 32 28 27v20c-31 9-61-2-59-35zM48-53c0 20 12 33 32 33 41-3 63-29 60-74-43 2-92-5-92 41" id="af"/><path d="M115-194c53 0 69 39 70 98 0 66-23 100-70 100C84 3 66-7 56-30L54 0H23l1-261h32v101c10-23 28-34 59-34zm-8 174c40 0 45-34 45-75 0-40-5-75-45-74-42 0-51 32-51 76 0 43 10 73 51 73" id="ag"/><path d="M114-163C36-179 61-72 57 0H25l-1-190h30c1 12-1 29 2 39 6-27 23-49 58-41v29" id="ah"/><path d="M59-47c-2 24 18 29 38 22v24C64 9 27 4 27-40v-127H5v-23h24l9-43h21v43h35v23H59v120" id="ai"/><path d="M135-143c-3-34-86-38-87 0 15 53 115 12 119 90S17 21 10-45l28-5c4 36 97 45 98 0-10-56-113-15-118-90-4-57 82-63 122-42 12 7 21 19 24 35" id="aj"/><g id="b"><use transform="matrix(0.05,0,0,0.05,0,0)" xlink:href="#ac"/><use transform="matrix(0.05,0,0,0.05,12.950000000000001,0)" xlink:href="#ad"/><use transform="matrix(0.05,0,0,0.05,22.950000000000003,0)" xlink:href="#ae"/><use transform="matrix(0.05,0,0,0.05,26.900000000000002,0)" xlink:href="#ae"/><use transform="matrix(0.05,0,0,0.05,30.85,0)" xlink:href="#af"/><use transform="matrix(0.05,0,0,0.05,40.85,0)" xlink:href="#ag"/><use transform="matrix(0.05,0,0,0.05,50.85,0)" xlink:href="#ad"/><use transform="matrix(0.05,0,0,0.05,60.85,0)" xlink:href="#ah"/><use transform="matrix(0.05,0,0,0.05,66.8,0)" xlink:href="#af"/><use transform="matrix(0.05,0,0,0.05,76.8,0)" xlink:href="#ai"/><use transform="matrix(0.05,0,0,0.05,81.8,0)" xlink:href="#ad"/><use transform="matrix(0.05,0,0,0.05,91.8,0)" xlink:href="#aj"/></g><path d="M96-169c-40 0-48 33-48 73s9 75 48 75c24 0 41-14 43-38l32 2c-6 37-31 61-74 61-59 0-76-41-82-99-10-93 101-131 147-64 4 7 5 14 7 22l-32 3c-4-21-16-35-41-35" id="ak"/><path d="M100-194c63 0 86 42 84 106H49c0 40 14 67 53 68 26 1 43-12 49-29l28 8c-11 28-37 45-77 45C44 4 14-33 15-96c1-61 26-98 85-98zm52 81c6-60-76-77-97-28-3 7-6 17-6 28h103" id="al"/><g id="c"><use transform="matrix(0.05,0,0,0.05,0,0)" xlink:href="#ak"/><use transform="matrix(0.05,0,0,0.05,9,0)" xlink:href="#ah"/><use transform="matrix(0.05,0,0,0.05,14.949999999999998,0)" xlink:href="#al"/><use transform="matrix(0.05,0,0,0.05,24.95,0)" xlink:href="#af"/><use transform="matrix(0.05,0,0,0.05,34.95,0)" xlink:href="#ai"/><use transform="matrix(0.05,0,0,0.05,39.95,0)" xlink:href="#al"/></g><path d="M117-194c89-4 53 116 60 194h-32v-121c0-31-8-49-39-48C34-167 62-67 57 0H25l-1-190h30c1 10-1 24 2 32 11-22 29-35 61-36" id="am"/><path d="M24-231v-30h32v30H24zM24 0v-190h32V0H24" id="an"/><path d="M33 0v-38h34V0H33" id="ao"/><g id="d"><use transform="matrix(0.05,0,0,0.05,0,0)" xlink:href="#al"/><use transform="matrix(0.05,0,0,0.05,10,0)" xlink:href="#am"/><use transform="matrix(0.05,0,0,0.05,20,0)" xlink:href="#ai"/><use transform="matrix(0.05,0,0,0.05,25,0)" xlink:href="#ah"/><use transform="matrix(0.05,0,0,0.05,30.950000000000003,0)" xlink:href="#an"/><use transform="matrix(0.05,0,0,0.05,34.9,0)" xlink:href="#al"/><use transform="matrix(0.05,0,0,0.05,44.9,0)" xlink:href="#aj"/><use transform="matrix(0.05,0,0,0.05,53.900000000000006,0)" xlink:href="#ao"/></g><path d="M205 0l-28-72H64L36 0H1l101-248h38L239 0h-34zm-38-99l-47-123c-12 45-31 82-46 123h93" id="ap"/><g id="e"><use transform="matrix(0.05,0,0,0.05,0,0)" xlink:href="#ap"/><use transform="matrix(0.05,0,0,0.05,12,0)" xlink:href="#am"/></g><g id="f"><use transform="matrix(0.05,0,0,0.05,0,0)" xlink:href="#al"/><use transform="matrix(0.05,0,0,0.05,10,0)" xlink:href="#am"/><use transform="matrix(0.05,0,0,0.05,20,0)" xlink:href="#ai"/><use transform="matrix(0.05,0,0,0.05,25,0)" xlink:href="#ah"/><use transform="matrix(0.05,0,0,0.05,30.950000000000003,0)" xlink:href="#an"/><use transform="matrix(0.05,0,0,0.05,34.9,0)" xlink:href="#al"/></g><g id="g"><use transform="matrix(0.05,0,0,0.05,0,0)" xlink:href="#ak"/><use transform="matrix(0.05,0,0,0.05,9,0)" xlink:href="#af"/><use transform="matrix(0.05,0,0,0.05,19,0)" xlink:href="#am"/></g><g id="h"><use transform="matrix(0.05,0,0,0.05,0,0)" xlink:href="#ag"/><use transform="matrix(0.05,0,0,0.05,10,0)" xlink:href="#al"/></g><use transform="matrix(0.05,0,0,0.05,0,0)" xlink:href="#af" id="i"/><path d="M210-169c-67 3-38 105-44 169h-31v-121c0-29-5-50-35-48C34-165 62-65 56 0H25l-1-190h30c1 10-1 24 2 32 10-44 99-50 107 0 11-21 27-35 58-36 85-2 47 119 55 194h-31v-121c0-29-5-49-35-48" id="aq"/><g id="j"><use transform="matrix(0.05,0,0,0.05,0,0)" xlink:href="#ak"/><use transform="matrix(0.05,0,0,0.05,9,0)" xlink:href="#ad"/><use transform="matrix(0.05,0,0,0.05,19,0)" xlink:href="#aq"/><use transform="matrix(0.05,0,0,0.05,33.95,0)" xlink:href="#aq"/><use transform="matrix(0.05,0,0,0.05,48.900000000000006,0)" xlink:href="#al"/><use transform="matrix(0.05,0,0,0.05,58.900000000000006,0)" xlink:href="#am"/><use transform="matrix(0.05,0,0,0.05,68.9,0)" xlink:href="#ai"/></g><path d="M85-194c31 0 48 13 60 33l-1-100h32l1 261h-30c-2-10 0-23-3-31C134-8 116 4 85 4 32 4 16-35 15-94c0-66 23-100 70-100zm9 24c-40 0-46 34-46 75 0 40 6 74 45 74 42 0 51-32 51-76 0-42-9-74-50-73" id="ar"/><path d="M0 4l72-265h28L28 4H0" id="as"/><g id="k"><use transform="matrix(0.05,0,0,0.05,0,0)" xlink:href="#af"/><use transform="matrix(0.05,0,0,0.05,10,0)" xlink:href="#am"/><use transform="matrix(0.05,0,0,0.05,20,0)" xlink:href="#ar"/><use transform="matrix(0.05,0,0,0.05,30,0)" xlink:href="#as"/><use transform="matrix(0.05,0,0,0.05,35,0)" xlink:href="#ad"/><use transform="matrix(0.05,0,0,0.05,45,0)" xlink:href="#ah"/></g><path d="M101-234c-31-9-42 10-38 44h38v23H63V0H32v-167H5v-23h27c-7-52 17-82 69-68v24" id="at"/><g id="l"><use transform="matrix(0.05,0,0,0.05,0,0)" xlink:href="#at"/><use transform="matrix(0.05,0,0,0.05,5,0)" xlink:href="#an"/><use transform="matrix(0.05,0,0,0.05,8.95,0)" xlink:href="#ae"/><use transform="matrix(0.05,0,0,0.05,12.899999999999999,0)" xlink:href="#al"/></g><g id="m"><use transform="matrix(0.05,0,0,0.05,0,0)" xlink:href="#ad"/><use transform="matrix(0.05,0,0,0.05,10,0)" xlink:href="#ah"/></g><path d="M108 0H70L1-190h34L89-25l56-165h34" id="au"/><g id="n"><use transform="matrix(0.05,0,0,0.05,0,0)" xlink:href="#aj"/><use transform="matrix(0.05,0,0,0.05,9,0)" xlink:href="#al"/><use transform="matrix(0.05,0,0,0.05,19,0)" xlink:href="#au"/><use transform="matrix(0.05,0,0,0.05,28,0)" xlink:href="#al"/><use transform="matrix(0.05,0,0,0.05,38,0)" xlink:href="#ah"/><use transform="matrix(0.05,0,0,0.05,43.95,0)" xlink:href="#af"/><use transform="matrix(0.05,0,0,0.05,53.95,0)" xlink:href="#ae"/></g><g id="o"><use transform="matrix(0.05,0,0,0.05,0,0)" xlink:href="#at"/><use transform="matrix(0.05,0,0,0.05,5,0)" xlink:href="#an"/><use transform="matrix(0.05,0,0,0.05,8.95,0)" xlink:href="#ae"/><use transform="matrix(0.05,0,0,0.05,12.899999999999999,0)" xlink:href="#al"/><use transform="matrix(0.05,0,0,0.05,22.9,0)" xlink:href="#aj"/></g><path d="M106-169C34-169 62-67 57 0H25v-261h32l-1 103c12-21 28-36 61-36 89 0 53 116 60 194h-32v-121c2-32-8-49-39-48" id="av"/><g id="p"><use transform="matrix(0.05,0,0,0.05,0,0)" xlink:href="#av"/><use transform="matrix(0.05,0,0,0.05,10,0)" xlink:href="#af"/><use transform="matrix(0.05,0,0,0.05,20,0)" xlink:href="#au"/><use transform="matrix(0.05,0,0,0.05,29,0)" xlink:href="#al"/></g><path d="M33 0v-248h34V0H33" id="aw"/><g id="q"><use transform="matrix(0.05,0,0,0.05,0,0)" xlink:href="#aw"/><use transform="matrix(0.05,0,0,0.05,5,0)" xlink:href="#ar"/><use transform="matrix(0.05,0,0,0.05,15,0)" xlink:href="#al"/><use transform="matrix(0.05,0,0,0.05,25,0)" xlink:href="#af"/></g><path d="M232-93c-1 65-40 97-104 97C67 4 28-28 28-90v-158h33c8 89-33 224 67 224 102 0 64-133 71-224h33v155" id="ax"/><g id="r"><use transform="matrix(0.05,0,0,0.05,0,0)" xlink:href="#ax"/><use transform="matrix(0.05,0,0,0.05,12.950000000000001,0)" xlink:href="#aj"/><use transform="matrix(0.05,0,0,0.05,21.950000000000003,0)" xlink:href="#al"/><use transform="matrix(0.05,0,0,0.05,31.950000000000003,0)" xlink:href="#ah"/></g><path d="M115-194c55 1 70 41 70 98S169 2 115 4C84 4 66-9 55-30l1 105H24l-1-265h31l2 30c10-21 28-34 59-34zm-8 174c40 0 45-34 45-75s-6-73-45-74c-42 0-51 32-51 76 0 43 10 73 51 73" id="ay"/><path d="M206 0h-36l-40-164L89 0H53L-1-190h32L70-26l43-164h34l41 164 42-164h31" id="az"/><g id="s"><use transform="matrix(0.05,0,0,0.05,0,0)" xlink:href="#ay"/><use transform="matrix(0.05,0,0,0.05,10,0)" xlink:href="#af"/><use transform="matrix(0.05,0,0,0.05,20,0)" xlink:href="#aj"/><use transform="matrix(0.05,0,0,0.05,29,0)" xlink:href="#aj"/><use transform="matrix(0.05,0,0,0.05,38,0)" xlink:href="#az"/><use transform="matrix(0.05,0,0,0.05,50.95,0)" xlink:href="#ad"/><use transform="matrix(0.05,0,0,0.05,60.95,0)" xlink:href="#ah"/><use transform="matrix(0.05,0,0,0.05,66.9,0)" xlink:href="#ar"/></g><g id="t"><use transform="matrix(0.05,0,0,0.05,0,0)" xlink:href="#al"/><use transform="matrix(0.05,0,0,0.05,10,0)" xlink:href="#aq"/><use transform="matrix(0.05,0,0,0.05,24.950000000000003,0)" xlink:href="#af"/><use transform="matrix(0.05,0,0,0.05,34.95,0)" xlink:href="#an"/><use transform="matrix(0.05,0,0,0.05,38.900000000000006,0)" xlink:href="#ae"/></g><g id="u"><use transform="matrix(0.05,0,0,0.05,0,0)" xlink:href="#am"/><use transform="matrix(0.05,0,0,0.05,10,0)" xlink:href="#af"/><use transform="matrix(0.05,0,0,0.05,20,0)" xlink:href="#aq"/><use transform="matrix(0.05,0,0,0.05,34.95,0)" xlink:href="#al"/></g><g id="v"><use transform="matrix(0.05,0,0,0.05,0,0)" xlink:href="#ai"/><use transform="matrix(0.05,0,0,0.05,5,0)" xlink:href="#an"/><use transform="matrix(0.05,0,0,0.05,8.95,0)" xlink:href="#ai"/><use transform="matrix(0.05,0,0,0.05,13.949999999999998,0)" xlink:href="#ae"/><use transform="matrix(0.05,0,0,0.05,17.9,0)" xlink:href="#al"/></g><g id="w"><use transform="matrix(0.05,0,0,0.05,0,0)" xlink:href="#ar"/><use transform="matrix(0.05,0,0,0.05,10,0)" xlink:href="#al"/><use transform="matrix(0.05,0,0,0.05,20,0)" xlink:href="#aj"/><use transform="matrix(0.05,0,0,0.05,29,0)" xlink:href="#ak"/><use transform="matrix(0.05,0,0,0.05,38,0)" xlink:href="#ah"/><use transform="matrix(0.05,0,0,0.05,43.95,0)" xlink:href="#an"/><use transform="matrix(0.05,0,0,0.05,47.900000000000006,0)" xlink:href="#ay"/><use transform="matrix(0.05,0,0,0.05,57.900000000000006,0)" xlink:href="#ai"/><use transform="matrix(0.05,0,0,0.05,62.900000000000006,0)" xlink:href="#an"/><use transform="matrix(0.05,0,0,0.05,66.85000000000001,0)" xlink:href="#ad"/><use transform="matrix(0.05,0,0,0.05,76.85000000000001,0)" xlink:href="#am"/></g><g id="x"><use transform="matrix(0.05,0,0,0.05,0,0)" xlink:href="#ak"/><use transform="matrix(0.05,0,0,0.05,9,0)" xlink:href="#ad"/><use transform="matrix(0.05,0,0,0.05,19,0)" xlink:href="#aq"/><use transform="matrix(0.05,0,0,0.05,33.95,0)" xlink:href="#aq"/><use transform="matrix(0.05,0,0,0.05,48.900000000000006,0)" xlink:href="#al"/><use transform="matrix(0.05,0,0,0.05,58.900000000000006,0)" xlink:href="#am"/><use transform="matrix(0.05,0,0,0.05,68.9,0)" xlink:href="#ai"/><use transform="matrix(0.05,0,0,0.05,73.9,0)" xlink:href="#aj"/></g><g id="y"><use transform="matrix(0.05,0,0,0.05,0,0)" xlink:href="#at"/><use transform="matrix(0.05,0,0,0.05,5,0)" xlink:href="#an"/><use transform="matrix(0.05,0,0,0.05,8.95,0)" xlink:href="#ae"/><use transform="matrix(0.05,0,0,0.05,12.899999999999999,0)" xlink:href="#al"/><use transform="matrix(0.05,0,0,0.05,22.9,0)" xlink:href="#aj"/></g><g id="z"><use transform="matrix(0.05,0,0,0.05,0,0)" xlink:href="#ak"/><use transform="matrix(0.05,0,0,0.05,9,0)" xlink:href="#ad"/><use transform="matrix(0.05,0,0,0.05,19,0)" xlink:href="#ae"/><use transform="matrix(0.05,0,0,0.05,22.95,0)" xlink:href="#ae"/><use transform="matrix(0.05,0,0,0.05,26.899999999999995,0)" xlink:href="#af"/><use transform="matrix(0.05,0,0,0.05,36.9,0)" xlink:href="#ag"/><use transform="matrix(0.05,0,0,0.05,46.9,0)" xlink:href="#ad"/><use transform="matrix(0.05,0,0,0.05,56.900000000000006,0)" xlink:href="#ah"/><use transform="matrix(0.05,0,0,0.05,62.85,0)" xlink:href="#af"/><use transform="matrix(0.05,0,0,0.05,72.85,0)" xlink:href="#ai"/><use transform="matrix(0.05,0,0,0.05,77.85,0)" xlink:href="#ad"/><use transform="matrix(0.05,0,0,0.05,87.85,0)" xlink:href="#ah"/><use transform="matrix(0.05,0,0,0.05,93.8,0)" xlink:href="#aj"/></g><g id="A"><use transform="matrix(0.05,0,0,0.05,0,0)" xlink:href="#af"/><use transform="matrix(0.05,0,0,0.05,10,0)" xlink:href="#ar"/><use transform="matrix(0.05,0,0,0.05,20,0)" xlink:href="#aq"/><use transform="matrix(0.05,0,0,0.05,34.95,0)" xlink:href="#an"/><use transform="matrix(0.05,0,0,0.05,38.900000000000006,0)" xlink:href="#am"/><use transform="matrix(0.05,0,0,0.05,48.900000000000006,0)" xlink:href="#an"/><use transform="matrix(0.05,0,0,0.05,52.85,0)" xlink:href="#aj"/><use transform="matrix(0.05,0,0,0.05,61.85,0)" xlink:href="#ai"/><use transform="matrix(0.05,0,0,0.05,66.85000000000001,0)" xlink:href="#ah"/><use transform="matrix(0.05,0,0,0.05,72.80000000000001,0)" xlink:href="#af"/><use transform="matrix(0.05,0,0,0.05,82.80000000000001,0)" xlink:href="#ai"/><use transform="matrix(0.05,0,0,0.05,87.80000000000001,0)" xlink:href="#ad"/><use transform="matrix(0.05,0,0,0.05,97.80000000000001,0)" xlink:href="#ah"/></g><g id="B"><use transform="matrix(0.05,0,0,0.05,0,0)" xlink:href="#av"/><use transform="matrix(0.05,0,0,0.05,10,0)" xlink:href="#af"/><use transform="matrix(0.05,0,0,0.05,20,0)" xlink:href="#au"/><use transform="matrix(0.05,0,0,0.05,29,0)" xlink:href="#al"/></g><path d="M30 0v-248h187v28H63v79h144v27H63v87h162V0H30" id="aA"/><g id="C"><use transform="matrix(0.05,0,0,0.05,0,0)" xlink:href="#aA"/><use transform="matrix(0.05,0,0,0.05,12,0)" xlink:href="#am"/><use transform="matrix(0.05,0,0,0.05,22,0)" xlink:href="#ai"/><use transform="matrix(0.05,0,0,0.05,27,0)" xlink:href="#ah"/><use transform="matrix(0.05,0,0,0.05,32.95,0)" xlink:href="#an"/><use transform="matrix(0.05,0,0,0.05,36.900000000000006,0)" xlink:href="#al"/><use transform="matrix(0.05,0,0,0.05,46.900000000000006,0)" xlink:href="#aj"/></g><g id="D"><use transform="matrix(0.05,0,0,0.05,0,0)" xlink:href="#ak"/><use transform="matrix(0.05,0,0,0.05,9,0)" xlink:href="#ah"/><use transform="matrix(0.05,0,0,0.05,14.949999999999998,0)" xlink:href="#al"/><use transform="matrix(0.05,0,0,0.05,24.95,0)" xlink:href="#af"/><use transform="matrix(0.05,0,0,0.05,34.95,0)" xlink:href="#ai"/><use transform="matrix(0.05,0,0,0.05,39.95,0)" xlink:href="#al"/></g><path d="M121-226c-27-7-43 5-38 36h38v33H83V0H34v-157H6v-33h28c-9-59 32-81 87-68v32" id="aB"/><path d="M25 0v-261h50V0H25" id="aC"/><path d="M137-138c1-29-70-34-71-4 15 46 118 7 119 86 1 83-164 76-172 9l43-7c4 19 20 25 44 25 33 8 57-30 24-41C81-84 22-81 20-136c-2-80 154-74 161-7" id="aD"/><g id="E"><use transform="matrix(0.05,0,0,0.05,0,0)" xlink:href="#aB"/><use transform="matrix(0.05,0,0,0.05,5.95,0)" xlink:href="#Z"/><use transform="matrix(0.05,0,0,0.05,10.95,0)" xlink:href="#aC"/><use transform="matrix(0.05,0,0,0.05,15.949999999999998,0)" xlink:href="#aa"/><use transform="matrix(0.05,0,0,0.05,25.950000000000003,0)" xlink:href="#aD"/><use transform="matrix(0.05,0,0,0.05,35.95,0)" xlink:href="#ab"/></g><g id="F"><use transform="matrix(0.05,0,0,0.05,0,0)" xlink:href="#ai"/><use transform="matrix(0.05,0,0,0.05,5,0)" xlink:href="#av"/><use transform="matrix(0.05,0,0,0.05,15,0)" xlink:href="#an"/><use transform="matrix(0.05,0,0,0.05,18.95,0)" xlink:href="#aj"/></g><path d="M84 4C-5 8 30-112 23-190h32v120c0 31 7 50 39 49 72-2 45-101 50-169h31l1 190h-30c-1-10 1-25-2-33-11 22-28 36-60 37" id="aE"/><g id="G"><use transform="matrix(0.05,0,0,0.05,0,0)" xlink:href="#af"/><use transform="matrix(0.05,0,0,0.05,10,0)" xlink:href="#ai"/><use transform="matrix(0.05,0,0,0.05,15,0)" xlink:href="#ai"/><use transform="matrix(0.05,0,0,0.05,20,0)" xlink:href="#ah"/><use transform="matrix(0.05,0,0,0.05,25.950000000000003,0)" xlink:href="#an"/><use transform="matrix(0.05,0,0,0.05,29.899999999999995,0)" xlink:href="#ag"/><use transform="matrix(0.05,0,0,0.05,39.9,0)" xlink:href="#aE"/><use transform="matrix(0.05,0,0,0.05,49.9,0)" xlink:href="#ai"/><use transform="matrix(0.05,0,0,0.05,54.900000000000006,0)" xlink:href="#al"/></g><g id="H"><use transform="matrix(0.05,0,0,0.05,0,0)" xlink:href="#an"/><use transform="matrix(0.05,0,0,0.05,3.95,0)" xlink:href="#aj"/></g><path d="M177-190C167-65 218 103 67 71c-23-6-38-20-44-43l32-5c15 47 100 32 89-28v-30C133-14 115 1 83 1 29 1 15-40 15-95c0-56 16-97 71-98 29-1 48 16 59 35 1-10 0-23 2-32h30zM94-22c36 0 50-32 50-73 0-42-14-75-50-75-39 0-46 34-46 75s6 73 46 73" id="aF"/><g id="I"><use transform="matrix(0.05,0,0,0.05,0,0)" xlink:href="#aj"/><use transform="matrix(0.05,0,0,0.05,9,0)" xlink:href="#ai"/><use transform="matrix(0.05,0,0,0.05,14,0)" xlink:href="#ah"/><use transform="matrix(0.05,0,0,0.05,19.95,0)" xlink:href="#an"/><use transform="matrix(0.05,0,0,0.05,23.9,0)" xlink:href="#am"/><use transform="matrix(0.05,0,0,0.05,33.9,0)" xlink:href="#aF"/></g><g id="J"><use transform="matrix(0.05,0,0,0.05,0,0)" xlink:href="#ar"/><use transform="matrix(0.05,0,0,0.05,10,0)" xlink:href="#af"/><use transform="matrix(0.05,0,0,0.05,20,0)" xlink:href="#ai"/><use transform="matrix(0.05,0,0,0.05,25,0)" xlink:href="#af"/></g><path d="M179-190L93 31C79 59 56 82 12 73V49c39 6 53-20 64-50L1-190h34L92-34l54-156h33" id="aG"/><g id="K"><use transform="matrix(0.05,0,0,0.05,0,0)" xlink:href="#ai"/><use transform="matrix(0.05,0,0,0.05,5,0)" xlink:href="#aG"/><use transform="matrix(0.05,0,0,0.05,14,0)" xlink:href="#ay"/><use transform="matrix(0.05,0,0,0.05,24,0)" xlink:href="#al"/><use transform="matrix(0.05,0,0,0.05,34,0)" xlink:href="#ao"/></g><g id="L"><use transform="matrix(0.05,0,0,0.05,0,0)" xlink:href="#aw"/><use transform="matrix(0.05,0,0,0.05,5,0)" xlink:href="#ai"/></g><path d="M13-211c8-23 27-35 38-54h36v5l-58 49H13" id="aH"/><g id="M"><use transform="matrix(0.05,0,0,0.05,0,0)" xlink:href="#aH"/><use transform="matrix(0.05,0,0,0.05,5.95,0)" xlink:href="#aj"/></g><path d="M143 0L79-87 56-68V0H24v-261h32v163l83-92h37l-77 82L181 0h-38" id="aI"/><g id="N"><use transform="matrix(0.05,0,0,0.05,0,0)" xlink:href="#ae"/><use transform="matrix(0.05,0,0,0.05,3.95,0)" xlink:href="#an"/><use transform="matrix(0.05,0,0,0.05,7.9,0)" xlink:href="#am"/><use transform="matrix(0.05,0,0,0.05,17.9,0)" xlink:href="#aI"/></g><g id="O"><use transform="matrix(0.05,0,0,0.05,0,0)" xlink:href="#ai"/><use transform="matrix(0.05,0,0,0.05,5,0)" xlink:href="#ad"/></g><g id="P"><use transform="matrix(0.05,0,0,0.05,0,0)" xlink:href="#ai"/><use transform="matrix(0.05,0,0,0.05,5,0)" xlink:href="#av"/><use transform="matrix(0.05,0,0,0.05,15,0)" xlink:href="#al"/></g><g id="Q"><use transform="matrix(0.05,0,0,0.05,0,0)" xlink:href="#ay"/><use transform="matrix(0.05,0,0,0.05,10,0)" xlink:href="#af"/><use transform="matrix(0.05,0,0,0.05,20,0)" xlink:href="#aF"/><use transform="matrix(0.05,0,0,0.05,30,0)" xlink:href="#al"/></g><g id="R"><use transform="matrix(0.05,0,0,0.05,0,0)" xlink:href="#ai"/><use transform="matrix(0.05,0,0,0.05,5,0)" xlink:href="#av"/><use transform="matrix(0.05,0,0,0.05,15,0)" xlink:href="#af"/><use transform="matrix(0.05,0,0,0.05,25,0)" xlink:href="#ai"/></g><g id="S"><use transform="matrix(0.05,0,0,0.05,0,0)" xlink:href="#ak"/><use transform="matrix(0.05,0,0,0.05,9,0)" xlink:href="#ad"/><use transform="matrix(0.05,0,0,0.05,19,0)" xlink:href="#am"/><use transform="matrix(0.05,0,0,0.05,29,0)" xlink:href="#ai"/><use transform="matrix(0.05,0,0,0.05,34,0)" xlink:href="#af"/><use transform="matrix(0.05,0,0,0.05,44,0)" xlink:href="#an"/><use transform="matrix(0.05,0,0,0.05,47.95,0)" xlink:href="#am"/><use transform="matrix(0.05,0,0,0.05,57.95,0)" xlink:href="#aj"/></g><g id="T"><use transform="matrix(0.05,0,0,0.05,0,0)" xlink:href="#ai"/><use transform="matrix(0.05,0,0,0.05,5,0)" xlink:href="#av"/><use transform="matrix(0.05,0,0,0.05,15,0)" xlink:href="#al"/></g><g id="U"><use transform="matrix(0.05,0,0,0.05,0,0)" xlink:href="#at"/><use transform="matrix(0.05,0,0,0.05,5,0)" xlink:href="#an"/><use transform="matrix(0.05,0,0,0.05,8.95,0)" xlink:href="#ae"/><use transform="matrix(0.05,0,0,0.05,12.899999999999999,0)" xlink:href="#al"/><use transform="matrix(0.05,0,0,0.05,22.9,0)" xlink:href="#ao"/></g></defs></g></svg>